HIERARCHY
ROOT Hips
{
	OFFSET	0.00	0.00	0.00
	CHANNELS 6 Xposition Yposition Zposition Zrotation Xrotation Yrotation
	JOINT LeftUpLeg
	{
		OFFSET	 0.126116	-0.014019	-0.065224
		CHANNELS 3 Zrotation Xrotation Yrotation
		JOINT LeftLeg
		{
			OFFSET	 0.000000	 0.000000	 0.569914
			CHANNELS 3 Zrotation Xrotation Yrotation
			JOINT LeftFoot
			{
				OFFSET	 0.000000	 0.000000	 0.544423
				CHANNELS 3 Zrotation Xrotation Yrotation
				JOINT LeftToeBase
				{
					OFFSET	 0.000000	 0.000000	 0.207117
					CHANNELS 3 Zrotation Xrotation Yrotation
					End Site
					{
						OFFSET	 0.000000	 0.000000	 0.207117
					}
				}
			}
		}
	}
	JOINT RightUpLeg
	{
		OFFSET	-0.124023	-0.008373	-0.065224
		CHANNELS 3 Zrotation Xrotation Yrotation
		JOINT RightLeg
		{
			OFFSET	 0.000000	 0.000000	 0.570047
			CHANNELS 3 Zrotation Xrotation Yrotation
			JOINT RightFoot
			{
				OFFSET	 0.000000	 0.000000	 0.544354
				CHANNELS 3 Zrotation Xrotation Yrotation
				JOINT RightToeBase
				{
					OFFSET	 0.000000	 0.000000	 0.207540
					CHANNELS 3 Zrotation Xrotation Yrotation
					End Site
					{
						OFFSET	 0.000000	 0.000000	 0.207540
					}
				}
			}
		}
	}
	JOINT Spine
	{
		OFFSET	 0.000184	-0.007763	 0.117403
		CHANNELS 3 Zrotation Xrotation Yrotation
		JOINT Spine1
		{
			OFFSET	 0.000000	 0.000000	 0.137269
			CHANNELS 3 Zrotation Xrotation Yrotation
			JOINT Spine2
			{
				OFFSET	 0.000000	 0.000000	 0.156879
				CHANNELS 3 Zrotation Xrotation Yrotation
				JOINT LeftShoulder
				{
					OFFSET	 0.080501	-0.002496	 0.160144
					CHANNELS 3 Zrotation Xrotation Yrotation
					JOINT LeftArm
					{
						OFFSET	 0.000000	 0.000000	 0.164363
						CHANNELS 3 Zrotation Xrotation Yrotation
						JOINT LeftForeArm
						{
							OFFSET	 0.000000	 0.000000	 0.364576
							CHANNELS 3 Zrotation Xrotation Yrotation
							JOINT LeftHand
							{
								OFFSET	 0.000000	 0.000000	 0.360812
								CHANNELS 3 Zrotation Xrotation Yrotation
								JOINT LeftHandIndex1
								{
									OFFSET	 0.000000	 0.000000	 0.086006
									CHANNELS 3 Zrotation Xrotation Yrotation
									JOINT LeftHandIndex2
									{
										OFFSET	 0.000000	 0.000000	 0.047236
										CHANNELS 3 Zrotation Xrotation Yrotation
										JOINT LeftHandIndex3
										{
											OFFSET	-0.004284	-0.000551	 0.038166
											CHANNELS 3 Zrotation Xrotation Yrotation
											End Site
											{
												OFFSET	-0.004284	-0.000551	 0.038166
											}
										}
									}
								}
							}
						}
					}
				}
				JOINT Neck
				{
					OFFSET	 0.000000	 0.000000	 0.176489
					CHANNELS 3 Zrotation Xrotation Yrotation
					JOINT Head
					{
						OFFSET	 0.000000	-0.001747	 0.077940
						CHANNELS 3 Zrotation Xrotation Yrotation
						End Site
						{
							OFFSET	 0.000000	-0.001747	 0.077940
						}
					}
				}
				JOINT RightShoulder
				{
					OFFSET	-0.080363	 0.000306	 0.159706
					CHANNELS 3 Zrotation Xrotation Yrotation
					JOINT RightArm
					{
						OFFSET	 0.000000	 0.000000	 0.164196
						CHANNELS 3 Zrotation Xrotation Yrotation
						JOINT RightForeArm
						{
							OFFSET	 0.000000	 0.000000	 0.365611
							CHANNELS 3 Zrotation Xrotation Yrotation
							JOINT RightHand
							{
								OFFSET	 0.000000	 0.000000	 0.360648
								CHANNELS 3 Zrotation Xrotation Yrotation
								JOINT RightHandIndex1
								{
									OFFSET	 0.000000	 0.000000	 0.069977
									CHANNELS 3 Zrotation Xrotation Yrotation
									JOINT RightHandIndex2
									{
										OFFSET	 0.000000	 0.000000	 0.052305
										CHANNELS 3 Zrotation Xrotation Yrotation
										JOINT RightHandIndex3
										{
											OFFSET	 0.009002	-0.000782	 0.042196
											CHANNELS 3 Zrotation Xrotation Yrotation
											End Site
											{
												OFFSET	 0.009002	-0.000782	 0.042196
											}
										}
									}
								}
							}
						}
					}
				}
			}
		}
	}
}
MOTION
Frames:    6
Frame Time: 0.03333334
-3.517173	-14.712440	 0.282522	-30.269090	 8.483915	 1.750246	 4.558010	-21.978330	 173.742700	-1.632851	-41.700850	-0.247945	 0.059569	 85.446670	-0.566675	-2.385859	 28.446330	 0.000141	-2.523313	-22.817550	-178.745500	-0.117311	-42.695790	 0.029289	-0.296513	 86.441180	 0.569218	 2.407676	 17.330720	-0.225614	 6.801525	 8.204096	-0.782664	 11.814860	 5.729222	-2.780689	 14.311350	 3.707907	 0.486656	-124.901000	 89.566140	-144.432600	 64.976130	 61.618710	-87.582100	-5.346163	-4.642119	-21.976670	 6.240711	-7.906075	-5.382114	-3.812334	 37.924440	-2.927599	-2.450526	 36.184240	 0.754587	-1.378229	 35.397820	-2.634230	 0.465436	 3.113225	-0.652878	 4.326537	 7.192345	-0.956048	 94.392860	 86.819740	 172.009200	-64.692270	 73.576880	 81.016030	-3.340198	-15.077600	 26.912350	-26.024840	-8.836290	 9.684772	 6.437017	 35.671460	-0.771858	 2.830251	 35.756010	-7.813440	-2.350882	 35.473990	 5.254307
-3.514423	-14.708380	 0.281631	-30.292460	 8.019810	 1.693196	 4.523757	-22.030810	 174.188500	-1.651115	-39.975670	-0.197432	 0.071613	 84.618540	-0.544474	-2.385759	 28.469200	-0.000351	-2.483264	-22.911000	-178.753500	-0.123063	-40.881540	-0.003478	-0.194904	 85.544200	 0.434322	 2.407684	 17.340240	-0.225429	 6.715823	 7.861951	-0.760747	 11.672460	 5.218318	-2.544621	 14.199040	 3.289018	 0.535002	-115.612300	 89.398020	-153.617600	 56.131080	 60.025290	-78.277070	-3.660329	-4.417969	-20.741100	 6.166173	-7.903821	-5.383228	-3.812334	 37.924440	-2.927599	-2.450526	 36.184240	 0.754587	-1.378229	 35.397820	-2.634230	 0.458541	 2.656807	-0.641726	 4.227641	 6.744994	-0.853778	 94.722900	 86.912820	 171.581900	-53.512260	 70.323540	 71.704620	-3.217221	-13.009160	 25.788280	-23.171100	-8.836729	 9.685046	 6.437017	 35.671460	-0.771858	 2.830251	 35.756010	-7.813440	-2.350882	 35.473990	 5.254307
-3.513849	-14.708220	 0.285351	-30.308070	 8.049978	 1.752911	 4.531195	-22.187600	 174.155900	-1.686047	-40.290890	-0.223884	 0.158481	 84.724970	-0.658960	-2.385730	 28.476800	-0.000516	-2.464568	-23.075110	-178.762300	-0.108192	-41.115630	 0.022660	-0.322691	 85.635870	 0.593915	 2.407697	 17.536830	-0.221590	 6.688990	 7.854829	-0.816281	 11.633560	 5.102892	-2.554648	 14.158470	 3.147362	 0.551053	-115.678100	 89.396720	-153.538900	 55.987200	 59.662070	-78.084880	-3.654330	-4.322088	-21.003110	 5.797485	-7.903599	-5.385545	-3.812334	 37.924440	-2.927599	-2.450526	 36.184240	 0.754587	-1.378229	 35.397820	-2.634230	 0.454139	 2.603349	-0.616818	 4.216242	 6.683794	-0.876028	 94.718570	 86.901490	 171.571900	-53.446370	 70.054280	 71.783910	-3.206135	-12.968630	 25.936980	-22.976140	-8.838164	 9.685733	 6.437017	 35.671460	-0.771858	 2.830251	 35.756010	-7.813440	-2.350882	 35.473990	 5.254307
-3.513340	-14.707890	 0.284538	-30.320960	 8.048199	 1.795123	 4.501503	-22.368720	 174.112500	-1.736980	-40.613930	-0.282746	 0.031764	 84.829150	-0.590788	-2.385581	 28.508910	-0.001210	-2.449812	-23.239060	-178.768800	-0.087306	-41.370440	 0.051377	-0.446361	 85.723920	 0.750725	 2.407676	 17.713580	-0.218137	 6.663506	 7.862129	-0.857429	 11.592610	 4.994337	-2.562552	 14.111940	 3.010154	 0.566201	-115.568200	 89.390590	-153.632800	 55.821040	 59.247130	-77.914410	-3.656551	-4.209761	-21.276970	 5.389140	-7.903621	-5.388445	-3.812334	 37.924440	-2.927599	-2.450526	 36.184240	 0.754587	-1.378229	 35.397820	-2.634230	 0.445883	 2.526793	-0.594633	 4.203560	 6.644812	-0.912859	 94.720890	 86.893920	 171.556400	-53.346630	 69.753570	 71.845030	-3.216378	-12.957150	 26.141140	-22.794700	-8.840005	 9.686729	 6.437017	 35.671460	-0.771858	 2.830251	 35.756010	-7.813440	-2.350882	 35.473990	 5.254307
-3.512677	-14.707430	 0.283562	-30.340040	 8.037110	 1.820745	 4.503795	-22.620550	 174.083600	-1.760183	-40.968650	-0.303711	 0.126110	 84.938400	-0.703243	-2.385344	 28.563060	-0.002381	-2.434481	-23.424580	-178.762600	-0.073117	-41.663640	 0.077823	-0.577081	 85.815540	 0.910375	 2.407660	 17.860150	-0.215263	 6.640364	 7.885223	-0.888673	 11.549700	 4.885706	-2.567010	 14.057950	 2.870003	 0.581289	-115.338100	 89.379460	-153.841200	 55.608410	 58.808090	-77.731030	-3.682724	-4.087046	-21.585170	 4.951221	-7.902100	-5.391817	-3.812334	 37.924440	-2.927599	-2.450526	 36.184240	 0.754587	-1.378229	 35.397820	-2.634230	 0.436718	 2.429196	-0.578980	 4.185778	 6.618320	-0.949627	 94.728330	 86.887880	 171.534400	-53.193290	 69.419030	 71.870050	-3.237121	-12.968320	 26.402470	-22.614760	-8.842116	 9.688239	 6.437017	 35.671460	-0.771858	 2.830251	 35.756010	-7.813440	-2.350882	 35.473990	 5.254307
-3.511736	-14.706780	 0.282305	-30.374840	 8.036071	 1.831358	 4.521828	-22.956410	 174.058700	-1.795142	-41.404880	-0.323577	 0.236710	 85.068470	-0.828093	-2.385184	 28.598710	-0.003153	-2.422797	-23.668810	-178.732200	-0.059392	-42.039200	 0.105386	-0.730719	 85.923160	 1.091991	 2.407634	 18.013010	-0.212272	 6.618693	 7.933703	-0.913395	 11.499120	 4.768329	-2.565723	 13.988650	 2.715660	 0.597317	-114.992300	 89.363880	-154.153900	 55.309840	 58.333100	-77.525740	-3.645921	-3.996458	-21.968260	 4.584848	-7.899082	-5.395462	-3.812334	 37.924440	-2.927599	-2.450526	 36.184240	 0.754587	-1.378229	 35.397820	-2.634230	 0.424883	 2.301121	-0.569633	 4.157574	 6.598382	-0.964571	 94.741620	 86.881340	 171.501600	-52.947110	 69.020790	 71.838030	-3.262383	-13.004240	 26.753950	-22.416840	-8.844718	 9.690568	 6.437017	 35.671460	-0.771858	 2.830251	 35.756010	-7.813440	-2.350882	 35.473990	 5.254307
